<?xml version="1.0" encoding="UTF-8"?>
<svg xmlns="http://www.w3.org/2000/svg" version="1.1" width="300" height="300" viewBox="0 0 300 300"><g transform="scale(14.286)"><g transform="translate(0,0)"><g><g transform="translate(3.5,3.5)"><path fill-rule="evenodd" d="M-3.5 -3.5L3.5 -3.5L3.5 3.5L-3.5 3.5ZM-2.5 -2.5L-2.5 2.5L2.5 2.5L2.5 -2.5Z" fill="#000000"/><path fill-rule="evenodd" d="M-1.5 -1.5L1.5 -1.5L1.5 1.5L-1.5 1.5Z" fill="#000000"/></g></g><g><g transform="translate(17.5,3.5)"><g transform="rotate(90)"><path fill-rule="evenodd" d="M-3.5 -3.5L3.5 -3.5L3.5 3.5L-3.5 3.5ZM-2.5 -2.5L-2.5 2.5L2.5 2.5L2.5 -2.5Z" fill="#000000"/><path fill-rule="evenodd" d="M-1.5 -1.5L1.5 -1.5L1.5 1.5L-1.5 1.5Z" fill="#000000"/></g></g></g><g><g transform="translate(3.5,17.5)"><g transform="rotate(-90)"><path fill-rule="evenodd" d="M-3.5 -3.5L3.5 -3.5L3.5 3.5L-3.5 3.5ZM-2.5 -2.5L-2.5 2.5L2.5 2.5L2.5 -2.5Z" fill="#000000"/><path fill-rule="evenodd" d="M-1.5 -1.5L1.5 -1.5L1.5 1.5L-1.5 1.5Z" fill="#000000"/></g></g></g><defs><linearGradient gradientUnits="userSpaceOnUse" x1="0" y1="0" x2="0" y2="21" id="g1"><stop offset="0%" stop-color="#000000"/><stop offset="100%" stop-color="#000000"/></linearGradient></defs><path fill-rule="evenodd" d="M8 0L8 1L9 1L9 4L10 4L10 5L11 5L11 6L10 6L10 7L9 7L9 6L8 6L8 8L9 8L9 9L7 9L7 8L6 8L6 9L5 9L5 8L3 8L3 9L2 9L2 8L0 8L0 9L1 9L1 10L0 10L0 11L1 11L1 10L2 10L2 11L4 11L4 12L3 12L3 13L5 13L5 12L6 12L6 13L7 13L7 12L9 12L9 13L8 13L8 14L9 14L9 15L10 15L10 16L8 16L8 18L9 18L9 19L8 19L8 21L9 21L9 19L10 19L10 21L12 21L12 20L11 20L11 19L10 19L10 18L9 18L9 17L10 17L10 16L11 16L11 18L13 18L13 16L14 16L14 17L15 17L15 18L14 18L14 19L13 19L13 20L15 20L15 19L16 19L16 21L19 21L19 19L21 19L21 18L20 18L20 17L19 17L19 15L18 15L18 18L17 18L17 17L16 17L16 16L17 16L17 14L21 14L21 12L19 12L19 11L21 11L21 8L20 8L20 10L19 10L19 9L16 9L16 11L17 11L17 12L18 12L18 13L17 13L17 14L13 14L13 13L11 13L11 12L12 12L12 11L10 11L10 10L11 10L11 8L12 8L12 10L13 10L13 11L15 11L15 8L14 8L14 10L13 10L13 4L12 4L12 3L11 3L11 2L12 2L12 1L13 1L13 0ZM10 1L10 2L11 2L11 1ZM11 4L11 5L12 5L12 4ZM11 6L11 7L12 7L12 6ZM6 9L6 10L7 10L7 9ZM8 10L8 11L9 11L9 12L10 12L10 11L9 11L9 10ZM18 10L18 11L19 11L19 10ZM6 11L6 12L7 12L7 11ZM0 12L0 13L2 13L2 12ZM14 12L14 13L15 13L15 12ZM11 14L11 15L12 15L12 14ZM14 15L14 16L16 16L16 15ZM18 18L18 19L17 19L17 20L18 20L18 19L19 19L19 18Z" fill="url(#g1)"/></g></g></svg>
