<?xml version="1.0" encoding="UTF-8"?>
<svg xmlns="http://www.w3.org/2000/svg" version="1.1" width="300" height="300" viewBox="0 0 300 300"><g transform="scale(14.286)"><g transform="translate(0,0)"><g><g transform="translate(3.5,3.5)"><path fill-rule="evenodd" d="M-3.5 -3.5L3.5 -3.5L3.5 3.5L-3.5 3.5ZM-2.5 -2.5L-2.5 2.5L2.5 2.5L2.5 -2.5Z" fill="#000000"/><path fill-rule="evenodd" d="M1.5 0A1.5 1.5 0 0 1 0 1.5A1.5 1.5 0 0 1 -1.5 0A1.5 1.5 0 0 1 0 -1.5A1.5 1.5 0 0 1 1.5 0Z" fill="#000000"/></g></g><g><g transform="translate(17.5,3.5)"><g transform="rotate(90)"><path fill-rule="evenodd" d="M-3.5 -3.5L3.5 -3.5L3.5 3.5L-3.5 3.5ZM-2.5 -2.5L-2.5 2.5L2.5 2.5L2.5 -2.5Z" fill="#000000"/><path fill-rule="evenodd" d="M1.5 0A1.5 1.5 0 0 1 0 1.5A1.5 1.5 0 0 1 -1.5 0A1.5 1.5 0 0 1 0 -1.5A1.5 1.5 0 0 1 1.5 0Z" fill="#000000"/></g></g></g><g><g transform="translate(3.5,17.5)"><g transform="rotate(-90)"><path fill-rule="evenodd" d="M-3.5 -3.5L3.5 -3.5L3.5 3.5L-3.5 3.5ZM-2.5 -2.5L-2.5 2.5L2.5 2.5L2.5 -2.5Z" fill="#000000"/><path fill-rule="evenodd" d="M1.5 0A1.5 1.5 0 0 1 0 1.5A1.5 1.5 0 0 1 -1.5 0A1.5 1.5 0 0 1 0 -1.5A1.5 1.5 0 0 1 1.5 0Z" fill="#000000"/></g></g></g><defs><linearGradient gradientUnits="userSpaceOnUse" x1="0" y1="0" x2="0" y2="21" id="g1"><stop offset="0%" stop-color="#000000"/><stop offset="100%" stop-color="#000000"/></linearGradient></defs><path fill-rule="evenodd" d="M10 0L10 1L8 1L8 2L10 2L10 3L8 3L8 5L10 5L10 8L9 8L9 6L8 6L8 9L9 9L9 10L8 10L8 14L10 14L10 13L11 13L11 15L8 15L8 18L9 18L9 16L13 16L13 17L12 17L12 18L11 18L11 17L10 17L10 18L11 18L11 19L8 19L8 20L12 20L12 21L14 21L14 20L13 20L13 19L14 19L14 18L15 18L15 19L17 19L17 16L16 16L16 18L15 18L15 15L14 15L14 16L13 16L13 14L15 14L15 13L17 13L17 15L18 15L18 18L19 18L19 19L18 19L18 20L15 20L15 21L19 21L19 19L21 19L21 18L20 18L20 17L19 17L19 15L18 15L18 14L21 14L21 12L19 12L19 11L16 11L16 10L20 10L20 11L21 11L21 10L20 10L20 8L19 8L19 9L18 9L18 8L16 8L16 9L15 9L15 8L13 8L13 5L12 5L12 3L13 3L13 2L12 2L12 0ZM10 1L10 2L11 2L11 1ZM11 6L11 7L12 7L12 6ZM1 8L1 9L0 9L0 10L1 10L1 11L2 11L2 13L4 13L4 12L3 12L3 11L2 11L2 10L3 10L3 9L4 9L4 11L5 11L5 12L6 12L6 13L7 13L7 12L6 12L6 11L7 11L7 10L6 10L6 9L7 9L7 8L3 8L3 9L2 9L2 8ZM10 8L10 9L11 9L11 10L12 10L12 11L15 11L15 9L14 9L14 10L13 10L13 9L11 9L11 8ZM5 10L5 11L6 11L6 10ZM9 11L9 12L10 12L10 11ZM12 12L12 14L13 14L13 12ZM17 12L17 13L18 13L18 12Z" fill="url(#g1)"/></g></g></svg>
