<?xml version="1.0" encoding="UTF-8"?>
<svg xmlns="http://www.w3.org/2000/svg" version="1.1" width="300" height="300" viewBox="0 0 300 300"><g transform="scale(14.286)"><g transform="translate(0,0)"><g><g transform="translate(3.5,3.5)"><path fill-rule="evenodd" d="M-3.5 -3.5L3.5 -3.5L3.5 3.5L-3.5 3.5ZM-2.5 -2.5L-2.5 2.5L2.5 2.5L2.5 -2.5Z" fill="#000000"/><path fill-rule="evenodd" d="M1.5 0A1.5 1.5 0 0 1 0 1.5A1.5 1.5 0 0 1 -1.5 0A1.5 1.5 0 0 1 0 -1.5A1.5 1.5 0 0 1 1.5 0Z" fill="#000000"/></g></g><g><g transform="translate(17.5,3.5)"><g transform="rotate(90)"><path fill-rule="evenodd" d="M-3.5 -3.5L3.5 -3.5L3.5 3.5L-3.5 3.5ZM-2.5 -2.5L-2.5 2.5L2.5 2.5L2.5 -2.5Z" fill="#000000"/><path fill-rule="evenodd" d="M1.5 0A1.5 1.5 0 0 1 0 1.5A1.5 1.5 0 0 1 -1.5 0A1.5 1.5 0 0 1 0 -1.5A1.5 1.5 0 0 1 1.5 0Z" fill="#000000"/></g></g></g><g><g transform="translate(3.5,17.5)"><g transform="rotate(-90)"><path fill-rule="evenodd" d="M-3.5 -3.5L3.5 -3.5L3.5 3.5L-3.5 3.5ZM-2.5 -2.5L-2.5 2.5L2.5 2.5L2.5 -2.5Z" fill="#000000"/><path fill-rule="evenodd" d="M1.5 0A1.5 1.5 0 0 1 0 1.5A1.5 1.5 0 0 1 -1.5 0A1.5 1.5 0 0 1 0 -1.5A1.5 1.5 0 0 1 1.5 0Z" fill="#000000"/></g></g></g><defs><linearGradient gradientUnits="userSpaceOnUse" x1="0" y1="0" x2="0" y2="21" id="g1"><stop offset="0%" stop-color="#000000"/><stop offset="100%" stop-color="#000000"/></linearGradient></defs><path fill-rule="evenodd" d="M9 0L9 1L8 1L8 2L9 2L9 3L8 3L8 4L9 4L9 3L10 3L10 2L9 2L9 1L10 1L10 0ZM12 0L12 1L11 1L11 2L12 2L12 1L13 1L13 0ZM11 3L11 4L10 4L10 5L8 5L8 7L9 7L9 6L10 6L10 8L6 8L6 9L5 9L5 8L0 8L0 9L2 9L2 12L1 12L1 10L0 10L0 13L3 13L3 12L5 12L5 11L7 11L7 12L6 12L6 13L7 13L7 12L9 12L9 11L12 11L12 10L13 10L13 11L14 11L14 10L13 10L13 9L14 9L14 8L13 8L13 4L12 4L12 3ZM11 5L11 7L12 7L12 5ZM10 8L10 9L11 9L11 10L12 10L12 8ZM15 8L15 10L16 10L16 11L15 11L15 12L16 12L16 13L14 13L14 12L13 12L13 13L12 13L12 12L10 12L10 13L8 13L8 15L10 15L10 18L9 18L9 16L8 16L8 21L9 21L9 20L10 20L10 21L12 21L12 20L10 20L10 19L12 19L12 18L13 18L13 19L14 19L14 18L13 18L13 16L15 16L15 17L16 17L16 18L15 18L15 19L16 19L16 20L17 20L17 21L18 21L18 20L19 20L19 21L20 21L20 20L21 20L21 19L18 19L18 18L20 18L20 17L21 17L21 15L20 15L20 14L19 14L19 13L18 13L18 12L19 12L19 11L20 11L20 10L19 10L19 9L20 9L20 8L19 8L19 9L18 9L18 8L17 8L17 10L16 10L16 8ZM3 9L3 10L4 10L4 11L5 11L5 9ZM6 9L6 10L7 10L7 11L8 11L8 9ZM18 10L18 11L17 11L17 12L18 12L18 11L19 11L19 10ZM16 13L16 17L17 17L17 16L18 16L18 17L20 17L20 15L19 15L19 14L18 14L18 15L17 15L17 13ZM10 14L10 15L12 15L12 14ZM13 14L13 15L14 15L14 14ZM18 15L18 16L19 16L19 15ZM11 16L11 18L12 18L12 16ZM16 18L16 19L17 19L17 20L18 20L18 19L17 19L17 18ZM13 20L13 21L14 21L14 20Z" fill="url(#g1)"/></g></g></svg>
