<?xml version="1.0" encoding="UTF-8"?>
<svg xmlns="http://www.w3.org/2000/svg" version="1.1" width="300" height="300" viewBox="0 0 300 300"><g transform="scale(14.286)"><g transform="translate(0,0)"><g><g transform="translate(3.5,3.5)"><path fill-rule="evenodd" d="M-3.5 -3.5L3.5 -3.5L3.5 3.5L-3.5 3.5ZM-2.5 -2.5L-2.5 2.5L2.5 2.5L2.5 -2.5Z" fill="#000000"/><path fill-rule="evenodd" d="M-1.5 -1.5L1.5 -1.5L1.5 1.5L-1.5 1.5Z" fill="#000000"/></g></g><g><g transform="translate(17.5,3.5)"><g transform="rotate(90)"><path fill-rule="evenodd" d="M-3.5 -3.5L3.5 -3.5L3.5 3.5L-3.5 3.5ZM-2.5 -2.5L-2.5 2.5L2.5 2.5L2.5 -2.5Z" fill="#000000"/><path fill-rule="evenodd" d="M-1.5 -1.5L1.5 -1.5L1.5 1.5L-1.5 1.5Z" fill="#000000"/></g></g></g><g><g transform="translate(3.5,17.5)"><g transform="rotate(-90)"><path fill-rule="evenodd" d="M-3.5 -3.5L3.5 -3.5L3.5 3.5L-3.5 3.5ZM-2.5 -2.5L-2.5 2.5L2.5 2.5L2.5 -2.5Z" fill="#000000"/><path fill-rule="evenodd" d="M-1.5 -1.5L1.5 -1.5L1.5 1.5L-1.5 1.5Z" fill="#000000"/></g></g></g><defs><linearGradient gradientUnits="userSpaceOnUse" x1="0" y1="0" x2="0" y2="21" id="g1"><stop offset="0%" stop-color="#000000"/><stop offset="100%" stop-color="#000000"/></linearGradient></defs><path fill-rule="evenodd" d="M9 0L9 1L8 1L8 3L9 3L9 4L8 4L8 8L6 8L6 9L8 9L8 8L9 8L9 9L10 9L10 14L9 14L9 10L8 10L8 11L7 11L7 10L6 10L6 11L5 11L5 10L4 10L4 11L2 11L2 10L3 10L3 9L4 9L4 8L3 8L3 9L2 9L2 8L0 8L0 10L1 10L1 11L2 11L2 13L4 13L4 12L6 12L6 13L8 13L8 15L9 15L9 17L8 17L8 18L9 18L9 19L8 19L8 21L9 21L9 19L11 19L11 18L12 18L12 19L13 19L13 20L10 20L10 21L13 21L13 20L16 20L16 21L17 21L17 20L18 20L18 15L16 15L16 14L17 14L17 13L18 13L18 12L16 12L16 13L15 13L15 12L14 12L14 13L15 13L15 16L14 16L14 14L13 14L13 15L11 15L11 14L12 14L12 13L13 13L13 12L12 12L12 11L14 11L14 10L15 10L15 9L17 9L17 8L14 8L14 10L12 10L12 11L11 11L11 8L13 8L13 4L12 4L12 3L13 3L13 2L12 2L12 1L13 1L13 0L11 0L11 2L12 2L12 3L11 3L11 4L12 4L12 5L11 5L11 6L10 6L10 7L9 7L9 4L10 4L10 0ZM11 6L11 7L12 7L12 6ZM18 8L18 9L20 9L20 10L19 10L19 12L20 12L20 13L21 13L21 9L20 9L20 8ZM17 10L17 11L18 11L18 10ZM6 11L6 12L7 12L7 11ZM11 12L11 13L12 13L12 12ZM19 14L19 17L20 17L20 19L19 19L19 21L20 21L20 20L21 20L21 17L20 17L20 16L21 16L21 15L20 15L20 14ZM10 15L10 16L11 16L11 15ZM12 16L12 18L13 18L13 19L16 19L16 18L17 18L17 17L16 17L16 18L15 18L15 17L14 17L14 16ZM10 17L10 18L11 18L11 17Z" fill="url(#g1)"/></g></g></svg>
