<?xml version="1.0" encoding="UTF-8"?>
<svg xmlns="http://www.w3.org/2000/svg" version="1.1" width="300" height="300" viewBox="0 0 300 300"><g transform="scale(14.286)"><g transform="translate(0,0)"><g><g transform="translate(3.5,3.5)"><path fill-rule="evenodd" d="M-3.5 -3.5L3.5 -3.5L3.5 3.5L-3.5 3.5ZM-2.5 -2.5L-2.5 2.5L2.5 2.5L2.5 -2.5Z" fill="#000000"/><path fill-rule="evenodd" d="M-1.5 -1.5L1.5 -1.5L1.5 1.5L-1.5 1.5Z" fill="#000000"/></g></g><g><g transform="translate(17.5,3.5)"><g transform="rotate(90)"><path fill-rule="evenodd" d="M-3.5 -3.5L3.5 -3.5L3.5 3.5L-3.5 3.5ZM-2.5 -2.5L-2.5 2.5L2.5 2.5L2.5 -2.5Z" fill="#000000"/><path fill-rule="evenodd" d="M-1.5 -1.5L1.5 -1.5L1.5 1.5L-1.5 1.5Z" fill="#000000"/></g></g></g><g><g transform="translate(3.5,17.5)"><g transform="rotate(-90)"><path fill-rule="evenodd" d="M-3.5 -3.5L3.5 -3.5L3.5 3.5L-3.5 3.5ZM-2.5 -2.5L-2.5 2.5L2.5 2.5L2.5 -2.5Z" fill="#000000"/><path fill-rule="evenodd" d="M-1.5 -1.5L1.5 -1.5L1.5 1.5L-1.5 1.5Z" fill="#000000"/></g></g></g><defs><linearGradient gradientUnits="userSpaceOnUse" x1="0" y1="0" x2="0" y2="21" id="g1"><stop offset="0%" stop-color="#000000"/><stop offset="100%" stop-color="#000000"/></linearGradient></defs><path fill-rule="evenodd" d="M10 0L10 2L8 2L8 8L9 8L9 3L10 3L10 2L11 2L11 3L12 3L12 4L10 4L10 7L11 7L11 8L10 8L10 9L7 9L7 8L2 8L2 10L0 10L0 13L2 13L2 12L3 12L3 11L5 11L5 10L6 10L6 11L8 11L8 12L5 12L5 13L8 13L8 14L9 14L9 13L10 13L10 11L9 11L9 10L11 10L11 11L12 11L12 10L13 10L13 11L14 11L14 10L13 10L13 3L12 3L12 0ZM11 5L11 7L12 7L12 5ZM0 8L0 9L1 9L1 8ZM11 8L11 10L12 10L12 8ZM14 8L14 9L15 9L15 10L16 10L16 11L15 11L15 12L16 12L16 13L14 13L14 12L13 12L13 13L12 13L12 12L11 12L11 14L10 14L10 15L8 15L8 19L12 19L12 18L13 18L13 19L14 19L14 18L13 18L13 16L15 16L15 17L16 17L16 18L17 18L17 19L16 19L16 20L17 20L17 21L18 21L18 20L19 20L19 21L20 21L20 20L21 20L21 19L18 19L18 18L20 18L20 17L21 17L21 15L20 15L20 14L19 14L19 13L18 13L18 12L19 12L19 11L20 11L20 10L19 10L19 8ZM3 9L3 10L2 10L2 11L1 11L1 12L2 12L2 11L3 11L3 10L5 10L5 9ZM6 9L6 10L7 10L7 9ZM16 9L16 10L17 10L17 9ZM18 10L18 11L19 11L19 10ZM8 12L8 13L9 13L9 12ZM16 13L16 17L17 17L17 13ZM11 14L11 15L10 15L10 16L9 16L9 17L10 17L10 18L12 18L12 16L11 16L11 15L12 15L12 14ZM13 14L13 15L14 15L14 14ZM18 14L18 15L19 15L19 16L18 16L18 17L20 17L20 15L19 15L19 14ZM10 16L10 17L11 17L11 16ZM8 20L8 21L9 21L9 20ZM10 20L10 21L12 21L12 20ZM13 20L13 21L14 21L14 20Z" fill="url(#g1)"/></g></g></svg>
