<?xml version="1.0" encoding="UTF-8"?>
<svg xmlns="http://www.w3.org/2000/svg" version="1.1" width="300" height="300" viewBox="0 0 300 300"><g transform="scale(10.345)"><g transform="translate(0,0)"><g><g transform="translate(3.5,3.5)"><path fill-rule="evenodd" d="M-3.5 -3.5L3.5 -3.5L3.5 3.5L-3.5 3.5ZM-2.5 -2.5L-2.5 2.5L2.5 2.5L2.5 -2.5Z" fill="#000000"/><path fill-rule="evenodd" d="M-1.5 -1.5L1.5 -1.5L1.5 1.5L-1.5 1.5Z" fill="#000000"/></g></g><g><g transform="translate(25.5,3.5)"><g transform="rotate(90)"><path fill-rule="evenodd" d="M-3.5 -3.5L3.5 -3.5L3.5 3.5L-3.5 3.5ZM-2.5 -2.5L-2.5 2.5L2.5 2.5L2.5 -2.5Z" fill="#000000"/><path fill-rule="evenodd" d="M-1.5 -1.5L1.5 -1.5L1.5 1.5L-1.5 1.5Z" fill="#000000"/></g></g></g><g><g transform="translate(3.5,25.5)"><g transform="rotate(-90)"><path fill-rule="evenodd" d="M-3.5 -3.5L3.5 -3.5L3.5 3.5L-3.5 3.5ZM-2.5 -2.5L-2.5 2.5L2.5 2.5L2.5 -2.5Z" fill="#000000"/><path fill-rule="evenodd" d="M-1.5 -1.5L1.5 -1.5L1.5 1.5L-1.5 1.5Z" fill="#000000"/></g></g></g><defs><linearGradient gradientUnits="userSpaceOnUse" x1="0" y1="0" x2="0" y2="29" id="g1"><stop offset="0%" stop-color="#000000"/><stop offset="100%" stop-color="#000000"/></linearGradient></defs><path fill-rule="evenodd" d="M9 0L9 1L8 1L8 2L9 2L9 3L10 3L10 4L11 4L11 3L13 3L13 5L14 5L14 3L15 3L15 5L16 5L16 3L17 3L17 4L20 4L20 5L18 5L18 7L17 7L17 6L16 6L16 7L17 7L17 8L18 8L18 9L17 9L17 10L18 10L18 9L19 9L19 10L22 10L22 11L21 11L21 13L25 13L25 12L26 12L26 14L27 14L27 15L25 15L25 14L22 14L22 15L18 15L18 14L20 14L20 12L17 12L17 11L16 11L16 12L15 12L15 13L14 13L14 12L13 12L13 10L14 10L14 11L15 11L15 10L16 10L16 9L15 9L15 8L13 8L13 6L12 6L12 7L11 7L11 5L8 5L8 8L4 8L4 9L0 9L0 12L1 12L1 13L0 13L0 14L1 14L1 13L3 13L3 14L2 14L2 15L1 15L1 16L0 16L0 18L2 18L2 19L3 19L3 20L0 20L0 21L5 21L5 20L6 20L6 21L7 21L7 20L6 20L6 19L7 19L7 18L6 18L6 17L8 17L8 18L9 18L9 17L8 17L8 15L9 15L9 16L10 16L10 20L8 20L8 25L9 25L9 26L10 26L10 28L11 28L11 29L13 29L13 28L14 28L14 29L15 29L15 28L17 28L17 29L18 29L18 26L17 26L17 24L18 24L18 23L20 23L20 24L19 24L19 25L24 25L24 26L21 26L21 27L22 27L22 29L28 29L28 28L25 28L25 27L29 27L29 26L28 26L28 23L27 23L27 22L28 22L28 21L29 21L29 20L28 20L28 19L29 19L29 18L28 18L28 19L27 19L27 17L26 17L26 16L28 16L28 15L29 15L29 14L27 14L27 12L26 12L26 11L27 11L27 9L28 9L28 8L27 8L27 9L26 9L26 11L25 11L25 10L22 10L22 9L24 9L24 8L22 8L22 9L21 9L21 6L20 6L20 5L21 5L21 4L20 4L20 3L21 3L21 1L20 1L20 0L18 0L18 1L17 1L17 2L16 2L16 1L15 1L15 0L14 0L14 1L13 1L13 0L12 0L12 1L11 1L11 0ZM9 1L9 2L11 2L11 1ZM18 1L18 2L20 2L20 1ZM13 2L13 3L14 3L14 2ZM15 2L15 3L16 3L16 2ZM9 6L9 7L10 7L10 6ZM14 6L14 7L15 7L15 6ZM19 6L19 7L20 7L20 6ZM8 8L8 9L9 9L9 8ZM10 8L10 12L7 12L7 11L6 11L6 12L7 12L7 13L6 13L6 14L5 14L5 11L4 11L4 14L3 14L3 16L1 16L1 17L2 17L2 18L3 18L3 19L4 19L4 20L5 20L5 19L6 19L6 18L5 18L5 17L4 17L4 16L7 16L7 15L6 15L6 14L8 14L8 13L11 13L11 11L12 11L12 10L13 10L13 8ZM5 9L5 10L7 10L7 9ZM14 9L14 10L15 10L15 9ZM2 10L2 11L3 11L3 10ZM8 10L8 11L9 11L9 10ZM28 10L28 12L29 12L29 10ZM22 11L22 12L25 12L25 11ZM16 12L16 13L17 13L17 12ZM13 13L13 14L14 14L14 13ZM10 14L10 15L11 15L11 18L12 18L12 20L13 20L13 22L12 22L12 23L14 23L14 25L16 25L16 24L17 24L17 23L15 23L15 22L14 22L14 21L15 21L15 20L16 20L16 19L17 19L17 18L16 18L16 17L15 17L15 16L16 16L16 14L15 14L15 15L14 15L14 17L12 17L12 16L13 16L13 15L11 15L11 14ZM22 15L22 16L21 16L21 17L24 17L24 18L26 18L26 17L24 17L24 16L25 16L25 15ZM17 16L17 17L18 17L18 18L19 18L19 19L21 19L21 18L20 18L20 17L19 17L19 16ZM14 17L14 18L13 18L13 20L14 20L14 18L15 18L15 19L16 19L16 18L15 18L15 17ZM4 18L4 19L5 19L5 18ZM22 19L22 20L26 20L26 19ZM10 20L10 21L9 21L9 25L11 25L11 28L13 28L13 27L15 27L15 26L13 26L13 27L12 27L12 25L13 25L13 24L12 24L12 25L11 25L11 20ZM18 20L18 21L19 21L19 20ZM27 20L27 21L28 21L28 20ZM16 21L16 22L17 22L17 21ZM21 21L21 24L24 24L24 21ZM25 21L25 26L26 26L26 21ZM22 22L22 23L23 23L23 22ZM19 26L19 29L21 29L21 28L20 28L20 26Z" fill="url(#g1)"/></g></g></svg>
