<?xml version="1.0" encoding="UTF-8"?>
<svg xmlns="http://www.w3.org/2000/svg" version="1.1" width="300" height="300" viewBox="0 0 300 300"><g transform="scale(10.345)"><g transform="translate(0,0)"><g><g transform="translate(3.5,3.5)"><path fill-rule="evenodd" d="M-3.5 -3.5L3.5 -3.5L3.5 3.5L-3.5 3.5ZM-2.5 -2.5L-2.5 2.5L2.5 2.5L2.5 -2.5Z" fill="#000000"/><path fill-rule="evenodd" d="M-1.5 -1.5L1.5 -1.5L1.5 1.5L-1.5 1.5Z" fill="#000000"/></g></g><g><g transform="translate(25.5,3.5)"><g transform="rotate(90)"><path fill-rule="evenodd" d="M-3.5 -3.5L3.5 -3.5L3.5 3.5L-3.5 3.5ZM-2.5 -2.5L-2.5 2.5L2.5 2.5L2.5 -2.5Z" fill="#000000"/><path fill-rule="evenodd" d="M-1.5 -1.5L1.5 -1.5L1.5 1.5L-1.5 1.5Z" fill="#000000"/></g></g></g><g><g transform="translate(3.5,25.5)"><g transform="rotate(-90)"><path fill-rule="evenodd" d="M-3.5 -3.5L3.5 -3.5L3.5 3.5L-3.5 3.5ZM-2.5 -2.5L-2.5 2.5L2.5 2.5L2.5 -2.5Z" fill="#000000"/><path fill-rule="evenodd" d="M-1.5 -1.5L1.5 -1.5L1.5 1.5L-1.5 1.5Z" fill="#000000"/></g></g></g><defs><linearGradient gradientUnits="userSpaceOnUse" x1="0" y1="0" x2="0" y2="29" id="g1"><stop offset="0%" stop-color="#000000"/><stop offset="100%" stop-color="#000000"/></linearGradient></defs><path fill-rule="evenodd" d="M10 0L10 1L8 1L8 7L9 7L9 6L10 6L10 7L11 7L11 8L10 8L10 9L9 9L9 8L5 8L5 12L6 12L6 13L4 13L4 11L3 11L3 10L4 10L4 9L3 9L3 8L2 8L2 9L1 9L1 10L0 10L0 11L1 11L1 12L2 12L2 13L4 13L4 18L5 18L5 16L6 16L6 17L7 17L7 18L6 18L6 19L2 19L2 18L0 18L0 19L2 19L2 20L0 20L0 21L7 21L7 20L8 20L8 24L9 24L9 20L10 20L10 25L9 25L9 26L8 26L8 27L9 27L9 29L14 29L14 28L15 28L15 29L16 29L16 28L15 28L15 26L13 26L13 25L15 25L15 24L16 24L16 27L17 27L17 25L18 25L18 27L19 27L19 28L18 28L18 29L19 29L19 28L20 28L20 29L22 29L22 27L24 27L24 28L23 28L23 29L27 29L27 28L28 28L28 29L29 29L29 26L28 26L28 25L29 25L29 22L27 22L27 24L26 24L26 23L25 23L25 22L26 22L26 21L25 21L25 20L27 20L27 21L28 21L28 20L29 20L29 18L28 18L28 20L27 20L27 19L26 19L26 17L27 17L27 16L28 16L28 17L29 17L29 14L28 14L28 15L27 15L27 14L26 14L26 13L29 13L29 12L28 12L28 11L29 11L29 9L28 9L28 8L23 8L23 9L25 9L25 11L26 11L26 13L25 13L25 12L24 12L24 10L22 10L22 8L20 8L20 7L21 7L21 6L20 6L20 7L19 7L19 5L21 5L21 4L19 4L19 3L21 3L21 0L19 0L19 1L18 1L18 0L17 0L17 1L16 1L16 2L15 2L15 1L14 1L14 0L13 0L13 1L14 1L14 2L12 2L12 0ZM10 1L10 2L9 2L9 3L10 3L10 6L11 6L11 7L12 7L12 6L13 6L13 7L14 7L14 6L13 6L13 5L14 5L14 4L15 4L15 3L14 3L14 4L13 4L13 3L11 3L11 1ZM19 1L19 2L20 2L20 1ZM17 2L17 3L18 3L18 2ZM11 4L11 5L12 5L12 4ZM17 4L17 5L19 5L19 4ZM15 5L15 8L14 8L14 10L15 10L15 11L13 11L13 12L14 12L14 14L13 14L13 13L12 13L12 11L11 11L11 10L12 10L12 9L10 9L10 12L11 12L11 13L10 13L10 14L11 14L11 15L12 15L12 16L15 16L15 15L14 15L14 14L15 14L15 11L16 11L16 10L15 10L15 9L16 9L16 5ZM17 6L17 7L18 7L18 11L17 11L17 13L16 13L16 15L17 15L17 16L18 16L18 17L16 17L16 18L17 18L17 19L18 19L18 21L16 21L16 19L14 19L14 18L15 18L15 17L12 17L12 19L11 19L11 16L10 16L10 15L9 15L9 16L10 16L10 17L8 17L8 16L7 16L7 15L6 15L6 14L7 14L7 13L6 13L6 14L5 14L5 15L6 15L6 16L7 16L7 17L8 17L8 18L7 18L7 19L6 19L6 20L7 20L7 19L8 19L8 20L9 20L9 19L11 19L11 20L12 20L12 21L11 21L11 22L12 22L12 23L15 23L15 22L16 22L16 24L17 24L17 22L19 22L19 20L21 20L21 19L22 19L22 18L21 18L21 17L19 17L19 15L17 15L17 14L18 14L18 13L19 13L19 14L20 14L20 13L21 13L21 16L22 16L22 14L24 14L24 20L25 20L25 17L26 17L26 16L27 16L27 15L26 15L26 14L25 14L25 13L24 13L24 12L23 12L23 13L22 13L22 12L19 12L19 11L20 11L20 9L19 9L19 7L18 7L18 6ZM6 9L6 10L7 10L7 11L6 11L6 12L7 12L7 11L8 11L8 10L9 10L9 9L8 9L8 10L7 10L7 9ZM26 9L26 11L27 11L27 9ZM1 10L1 11L2 11L2 10ZM21 10L21 11L22 11L22 10ZM8 12L8 13L9 13L9 12ZM0 13L0 14L1 14L1 13ZM11 13L11 14L12 14L12 13ZM2 15L2 17L3 17L3 15ZM25 15L25 16L26 16L26 15ZM0 16L0 17L1 17L1 16ZM18 17L18 19L21 19L21 18L19 18L19 17ZM12 19L12 20L13 20L13 22L14 22L14 20L13 20L13 19ZM21 21L21 24L24 24L24 21ZM22 22L22 23L23 23L23 22ZM18 23L18 24L19 24L19 23ZM12 24L12 25L11 25L11 26L12 26L12 27L11 27L11 28L12 28L12 27L13 27L13 26L12 26L12 25L13 25L13 24ZM27 24L27 25L21 25L21 27L20 27L20 26L19 26L19 27L20 27L20 28L21 28L21 27L22 27L22 26L26 26L26 27L25 27L25 28L27 28L27 25L28 25L28 24ZM9 26L9 27L10 27L10 26Z" fill="url(#g1)"/></g></g></svg>
